<?xml version="1.0" encoding="UTF-8" standalone="no"?>
<svg width="57px" height="80px" viewBox="0 0 57 80" version="1.1" xmlns="http://www.w3.org/2000/svg" xmlns:xlink="http://www.w3.org/1999/xlink" xmlns:sketch="http://www.bohemiancoding.com/sketch/ns">
    <title>blue-2014-v1</title>
    <description>Created with Sketch (http://www.bohemiancoding.com/sketch)</description>
    <defs></defs>
    <g id="logo" stroke="none" stroke-width="1" fill="none" fill-rule="evenodd" sketch:type="MSPage">
        <path d="M55.9644543,0 L1.03532839,0 C0.409654494,0 0,0.376807095 0,1.06726328 L0,39.6679387 C0,62.1588263 22.7348465,80 28.4693574,80 C34.0473956,80 57,62.1588263 57,39.6679387 L57,1.06726328 C56.9997827,0.376807095 56.5901282,0 55.9644543,0 Z M26.9613508,10.8192878 L26.9802579,10.7505633 C26.9841697,10.7370754 27.3499249,9.37050735 26.8094417,8.03434083 C26.26722,6.69367831 24.9056893,6.11112598 24.8919979,6.10534542 L24.8309301,6.07965402 L24.817456,6.14366841 C24.8152828,6.15480135 24.5931783,7.26509771 25.1327922,8.64793693 C25.6732753,10.0335594 26.8874608,10.7749702 26.8996309,10.7822494 L26.9613508,10.8192878 Z M45.9306357,38.1213169 C45.3519037,38.1213169 44.7809953,38.1761252 44.2342097,38.2842431 C41.8123585,38.7623171 40.2697974,39.8544154 39.7208386,40.2993047 C39.3096629,40.3802326 38.9493408,40.4898492 38.6313967,40.6345774 C38.3986434,40.7399121 38.1856666,40.8707241 37.9931181,41.0190919 C38.2506463,39.8462798 38.6016234,38.7162867 39.0434418,37.6421724 C39.104075,37.5537512 39.1684027,37.4713247 39.2396848,37.4019579 C39.4291907,37.2137684 39.6854149,37.0748208 40.002055,36.9883265 C40.3221723,36.8999053 40.6698897,36.8641514 40.9702305,36.8378177 C41.0456417,36.8313949 41.1212702,36.8258284 41.1968988,36.8200479 C41.6208966,36.924098 42.2237515,37.0315737 42.9124492,37.0315737 C43.7298023,37.0315737 44.4969537,36.8832059 45.1923883,36.5901099 C47.4660251,35.6328914 48.6930327,33.568588 48.7052028,33.5478208 C48.6645633,33.4675352 48.0125933,33.3127445 47.0687581,33.3127445 C45.9471523,33.3127445 44.9013924,33.5202025 43.9612516,33.9295521 C42.2344004,34.6812394 41.1919003,35.7463617 40.7624694,36.2550513 C40.4632152,36.2820273 40.1511389,36.319708 39.8381932,36.4034191 C39.7388765,36.4295387 39.6432542,36.4612247 39.5508918,36.4969786 C39.6741141,36.2389942 39.801031,35.9822943 39.9331635,35.7275214 C40.6329447,35.3866822 42.4130402,34.3748695 43.5600727,32.4398795 C44.9776729,30.0486531 44.909216,27.991843 44.9055215,27.9055627 L44.8946554,27.6443669 L44.6366926,27.7064544 C44.5256403,27.7332163 41.9047209,28.3872763 40.4877727,30.7127756 C39.300318,32.6612536 39.2920597,34.7833627 39.3250928,35.4646128 C38.9960653,36.0638645 38.7078946,36.6361403 38.4566688,37.1944999 C38.4049458,37.1390493 38.3740859,37.0238662 38.3406181,36.9097536 C38.3919064,36.3991372 38.3882119,35.6538727 38.1019971,34.9133183 C37.5943298,33.5987754 36.2760464,33.0112989 36.2627897,33.0055183 C36.1854226,33.0534756 35.9524519,34.1320859 36.4570767,35.4873068 C36.8013169,36.4119829 37.4539389,37.0493435 37.8394705,37.3647054 C37.8588123,37.4693978 37.8768501,37.5747325 37.8881509,37.6822082 C37.9155337,37.9476859 37.9166203,38.2114509 37.8916281,38.4655816 C37.8848911,38.5334497 37.8718517,38.5968218 37.8616375,38.6621207 C37.5121815,39.6253339 37.2290092,40.6275123 37.0142938,41.6605204 C36.878684,40.9895468 36.7169954,40.3386982 36.5303147,39.7126846 C36.1519548,38.4396761 35.6321173,37.1604588 34.9855804,35.911643 C34.8956085,35.7365134 34.7999863,35.5645951 34.7058853,35.3916064 C34.9369,34.9625601 35.1950801,34.5048252 35.4938997,33.9952792 C35.64733,33.7336552 35.8027162,33.4724594 35.9583197,33.2108353 C36.3597159,32.535794 36.7748035,31.8378445 37.1562059,31.1343285 C37.2096675,31.0367012 37.2620424,30.9365048 37.3150693,30.837807 C37.4061278,30.7236944 37.5026193,30.6123651 37.6086731,30.506174 C37.8353414,30.2783769 38.1006931,30.0595719 38.4677523,29.7970915 C38.6776866,29.6487237 38.8917501,29.5044237 39.1064656,29.3599097 C39.1827461,29.3085269 39.2598958,29.2562877 39.3368283,29.2040485 C40.05443,28.9991597 42.4834529,28.1757505 44.272676,26.0091097 C46.3433327,23.502058 46.6391098,21.1204659 46.6504106,21.0202694 L46.6806186,20.7603582 L46.4161361,20.7826241 C46.2835688,20.793757 43.1465064,21.0842838 41.0919316,23.5121204 C39.3600819,25.5582258 38.9688999,28.0153934 38.8858824,28.7936285 C38.552943,29.0160732 38.3334464,29.1625141 38.1159058,29.3145215 C38.2684668,28.9636199 38.452757,28.5504167 38.6007542,28.1151617 C38.9671613,27.3726804 39.4685262,26.1859522 39.4074584,24.796476 C39.3185731,22.7717801 37.8349067,21.4221256 37.7716656,21.3658187 L37.5752053,21.1900467 L37.4391609,21.4146323 C37.4056931,21.4700829 36.617244,22.7953306 36.6826584,24.855138 C36.7345986,26.5015281 37.5134855,27.7736802 37.8568564,28.257963 C37.6884308,28.6589628 37.4967516,29.0353417 37.3231102,29.3622647 C37.0651474,29.8497589 36.7991437,30.3316866 36.531836,30.7954162 C36.5131462,30.6378424 36.5124942,30.4331676 36.5014107,30.2306338 C36.7182994,29.5857798 36.9680039,28.5123078 36.762416,27.360477 C36.4340405,25.5196887 34.8623581,24.4278045 34.8467108,24.4168857 C34.7599988,24.4528536 34.1814841,25.8035786 34.4957336,27.6996034 C34.7269656,29.0918628 35.508895,30.1362179 35.915507,30.6003757 C35.9128991,30.7140601 35.908118,30.8283868 35.8983384,30.9431417 C35.8670439,31.3092441 35.8018469,31.6620725 35.7036167,31.992421 C35.6310307,31.9496021 35.5756133,31.8382727 35.5165013,31.7337944 C35.4699941,31.412866 35.3463371,30.918949 35.0166576,30.4742738 C34.4726973,29.7409986 33.5790638,29.6011946 33.5412495,29.5956282 L33.2789402,29.5566629 L33.2919796,29.8178587 C33.2935009,29.8465475 33.3332711,30.5299385 33.8678865,31.2692083 C34.2371188,31.7796107 34.7365279,32.0592187 35.0275238,32.1887461 C35.1518328,32.4467305 35.2359369,32.7310486 35.2142046,32.9633416 C35.0818546,33.1752956 34.9492874,33.3874637 34.8178068,33.6007022 C34.6076551,33.9415414 34.4170626,34.2588301 34.2395094,34.5622026 C33.8611494,33.9128527 33.4684462,33.2763484 33.081176,32.6544026 C32.6941231,32.0324568 32.3007679,31.3993781 31.9261024,30.7549523 C32.0245499,30.5719011 32.1232147,30.3888499 32.2173157,30.2038719 C32.8047407,29.0550385 33.2726378,27.9051345 33.6079678,26.7867026 C33.7837823,26.2017952 33.9337354,25.5997602 34.0536979,24.9972971 C34.1160697,24.6806506 34.16801,24.383701 34.2125613,24.0886781 C34.247333,23.8540301 34.2647189,23.5992571 34.2677614,23.31708 C34.3401301,22.8897465 34.4653083,22.4574888 34.639819,22.031868 C35.2935276,21.7625366 37.3389748,20.791616 38.7011575,18.7178924 C40.30044,16.2825625 40.3284747,14.1276969 40.3289093,14.0371348 L40.3302133,13.7757248 L40.0696426,13.8260372 C39.9525053,13.8487312 37.1792422,14.4098741 35.5849582,16.775195 C34.2299472,18.7851183 34.1341076,21.0369688 34.139106,21.718433 C34.1097673,21.578629 34.0815153,21.4294049 34.0491341,21.2797525 C34.001975,21.0665139 33.9482961,20.8667634 33.891792,20.6732215 C33.9498174,20.252525 33.9687245,19.6462081 33.7611807,19.0338966 C33.3860806,17.9272398 32.347927,17.4114851 32.3038104,17.3900756 C32.2177504,17.4602988 31.9939073,18.3190336 32.3644436,19.4582328 C32.5965449,20.1720253 33.0524893,20.6948451 33.364131,20.9879411 C33.3971641,21.12068 33.4284587,21.2566303 33.456928,21.3992175 C33.5725441,21.9903336 33.6299174,22.5756692 33.6275269,23.1383107 C33.6253536,23.4600954 33.6038386,23.738847 33.5612432,23.9897663 C33.5125628,24.2723716 33.4549721,24.5661098 33.3899925,24.8626313 C33.3043671,25.2518559 33.2017904,25.6370127 33.0918248,26.0183158 C33.2609024,25.3017401 33.4754005,23.8735127 32.9929427,22.3844824 C32.3170671,20.2983413 30.3804989,19.305369 30.2983506,19.2640486 L30.0619028,19.145226 L29.9904035,19.3972157 C29.971279,19.4642274 29.5309819,21.0671562 30.1931661,23.1997559 C30.738865,24.9574754 31.9780427,26.0842571 32.4457225,26.460636 C32.4883179,26.9354985 32.4831022,27.2874706 32.4431147,27.6240279 C32.4248595,27.7783903 32.3987807,27.9263299 32.3674861,28.0710581 C32.1186509,28.6611038 31.8367825,29.2552172 31.5177519,29.8497589 C31.2926049,29.6168236 31.124614,29.290757 30.9677065,28.961479 C30.3909304,27.7672574 29.9447656,26.526149 29.6413822,25.272195 C29.3477783,24.06577 29.1589244,22.7555089 29.080036,21.3775939 C29.0619982,21.0624461 29.0487414,20.7297426 29.0409178,20.3891176 L29.0365713,20.1366996 C29.0354847,20.0604818 29.0335288,19.9823372 29.0320075,19.9046207 C29.0337461,19.7177158 29.0387446,19.533166 29.057869,19.3494725 C29.0878596,19.0330402 29.1437117,18.7249576 29.2232521,18.4329321 C29.3512555,17.9606386 29.5559741,17.5095406 29.8185007,17.1057575 C30.4919857,17.0918414 32.3168498,16.9409044 33.9711151,15.7987079 C35.9820079,14.4105163 36.6902647,12.7514947 36.719386,12.6814856 L36.820224,12.4395583 L36.5598707,12.3898883 C36.5435714,12.386891 36.1565186,12.3143128 35.5662684,12.3143128 C34.6652458,12.3143128 33.3404427,12.4830196 32.1466856,13.2865179 C30.6445467,14.297046 29.8537071,15.7625259 29.5468465,16.446131 C29.3004019,16.7531432 29.0876423,17.0952669 28.9142183,17.4592283 C28.934212,16.8139461 28.9805019,16.1802251 29.0528706,15.5685559 C29.1530566,15.4895548 31.4469045,13.654333 32.2125346,10.5792874 C32.9759915,7.51259146 32.2247047,5.28771684 32.1923235,5.19437144 L32.1062635,4.94709179 L31.8769874,5.07876018 C31.7646312,5.14320275 29.1178503,6.69303603 28.3341823,9.68437053 C27.7393683,11.956346 28.2479049,14.0735309 28.5425954,14.9977788 C28.5260788,15.1101786 28.5082583,15.221508 28.4934803,15.3351924 C28.4328471,15.807914 28.3889478,16.2939095 28.3585225,16.7863279 C28.1338102,16.324311 27.8502032,15.8969775 27.5203064,15.5295906 C27.405777,14.7215963 27.0271997,13.0017716 25.8001922,11.5380045 C24.1565757,9.57603849 21.6319305,9.32982931 21.5254421,9.32019504 L21.2609596,9.2966446 L21.2896463,9.55655585 C21.2985565,9.63705555 21.5269633,11.5540616 23.17949,13.5755461 C24.7998528,15.5572088 27.0878329,16.1558183 27.2882051,16.2050601 C27.5822435,16.6030626 27.817822,17.048166 27.985813,17.5371589 C28.1790134,18.0940198 28.2957161,18.7251717 28.3328784,19.4143433 C28.3470044,19.6530591 28.3461351,19.8900622 28.3450485,20.1409815 L28.3446138,20.3981095 C28.3298358,21.1350243 28.2972373,21.7013054 28.2474703,22.2412529 C28.122944,23.5896228 27.8864962,24.8696965 27.5448639,26.0465764 C27.2019277,27.2373724 26.7131675,28.4416565 26.0914054,29.626886 C26.0355533,29.7341476 25.9749201,29.8403387 25.9171121,29.9471721 C25.5637444,29.2946107 25.2568838,28.6602474 24.9937052,28.0327351 C24.9561083,27.8368382 24.9328547,27.6353749 24.925683,27.4219223 C24.9150342,27.1286122 24.9358972,26.8254537 24.9882722,26.5203685 C25.006962,26.4094673 25.0339101,26.3013493 25.0602062,26.1932314 C25.5146293,25.8742299 26.3415446,25.1848442 26.8174827,24.1220769 C27.491837,22.6137781 27.3051563,21.3690301 27.3032004,21.3566126 C27.2154017,21.3202164 25.6711021,21.8954896 24.9963131,23.3560452 C24.5955689,24.2239861 24.5521042,25.1180466 24.5827468,25.7042385 C24.5075529,25.9224013 24.4427906,26.1457023 24.3965007,26.3758544 C24.2708878,25.9701445 24.1539679,25.5618654 24.0576936,25.1540145 C23.9861942,24.8455037 23.9209972,24.5631125 23.8801405,24.2995616 C23.8429782,24.0379376 23.8275482,23.7608988 23.8334159,23.4532443 C23.8464553,22.8694074 23.9303422,22.2967035 24.0824685,21.7516178 C24.5838334,21.4872105 25.5228876,20.9294932 26.1655127,19.9386618 C27.0669699,18.5502561 27.0760975,17.2918061 27.0760975,17.2791744 C26.9950359,17.2301467 25.3794542,17.5658476 24.4856033,18.9069383 C24.0187927,19.6078851 23.8221151,20.3700631 23.7397496,20.9410543 C23.6782471,21.0806442 23.6215257,21.2272992 23.5684988,21.382304 C23.5452452,21.2780397 23.5206877,21.1746319 23.4939569,21.0729368 C23.586102,20.3445858 23.7425748,18.1503268 22.6757345,16.0382802 C21.3911363,13.4959028 18.7106702,12.6007718 18.5970101,12.5637334 L18.344915,12.4819491 L18.3131858,12.7414322 C18.3021023,12.8313521 18.0584829,14.9727297 19.3387346,17.5844738 C20.4483876,19.848956 22.4040803,21.0652294 22.9823777,21.3872282 C23.0373606,21.6205917 23.0838677,21.8623048 23.1203781,22.11301 C23.1684065,22.4405753 23.1986145,22.7854822 23.2133925,23.1550101 C23.2060035,23.2479273 23.1968759,23.3404163 23.1929641,23.4339758 C23.1792727,23.7741727 23.1901389,24.0848244 23.2266492,24.3862701 C23.2646808,24.668019 23.3207502,24.9367082 23.3746464,25.1964053 C23.5241648,25.8962817 23.6828109,26.4927502 23.8666664,27.0693079 C24.2115586,28.1596934 24.6922778,29.2963235 25.2949154,30.4472979 C25.3492462,30.5515621 25.4066196,30.6545418 25.4622544,30.7583778 C25.0825905,31.4115815 24.6840195,32.0562213 24.2915335,32.6860886 L24.0933347,33.0042337 C23.7819103,33.5037172 23.4648356,34.0235397 23.1549325,34.5559939 C22.7911332,33.9353326 22.4121213,33.3260184 22.0402811,32.7314768 C21.9498746,32.5867486 21.8585988,32.4398795 21.7677576,32.2938667 C21.7351591,32.2028764 21.7047338,32.1103874 21.6771338,32.0159715 C21.5799902,31.6828398 21.5154452,31.3291549 21.4858892,30.9647653 C21.8449074,30.4742738 22.7913505,29.3447089 23.0569197,27.7454197 C23.3789928,25.8033645 22.8004781,24.4519972 22.7757033,24.3954762 L22.6705188,24.1554757 L22.4523261,24.3044858 C22.3853905,24.350088 20.8091444,25.44604 20.468816,27.3525555 C20.2010737,28.8529328 20.6667976,30.1897416 20.8878154,30.7119192 C20.6639724,30.4552194 20.4390427,30.0570028 20.2321509,29.6551466 C19.6834095,28.5504167 19.3489488,27.5360349 19.2096446,26.5544096 C19.1703091,26.2709479 19.149446,25.9949795 19.1468381,25.7282172 C19.5606218,25.294889 20.3360314,24.3490176 20.6170305,23.0924944 C21.0066913,21.3499756 20.0235205,19.8230505 20.0135236,19.8076357 C19.9196399,19.8080639 18.910173,20.7931147 18.4876964,22.5784524 C18.2386439,23.630729 18.3857718,24.6117121 18.5505029,25.2462895 C18.5311611,25.4563166 18.5255107,25.6734089 18.5283359,25.894783 C18.1869209,24.9662533 17.4165097,23.3357062 15.9058952,22.0830367 C14.1627447,20.6376818 12.002116,20.4816066 11.1543377,20.4816066 C10.9102836,20.4816066 10.7666329,20.4942382 10.7605478,20.4948805 L10.4962826,20.518645 L10.5721285,20.7691361 C10.5984246,20.8560586 11.2401804,22.9162942 13.4699179,24.8101781 C15.3425931,26.4011176 17.5469037,26.7783529 18.2829779,26.8627063 C18.5350729,27.2690585 18.6874166,27.5775693 18.8225917,27.9032077 C18.9990583,28.5632624 19.2524573,29.2440843 19.5897431,29.9606601 C20.1276184,31.0623926 20.7595946,32.1223767 21.3707079,33.1476773 C21.8105703,33.8856626 22.2604296,34.6452714 22.6731266,35.41323 C22.4805782,35.767343 22.2928108,36.1248816 22.1172135,36.4884148 C21.5221822,37.7136801 21.0455921,38.9864746 20.7007,40.2714724 C20.5900824,40.6814642 20.4940255,41.1062286 20.4044883,41.5369876 C20.1161002,40.1753438 19.7170946,38.8839231 19.2096446,37.6789968 C18.9375558,37.027934 18.6196117,36.3665948 18.2527699,35.6795641 C18.1693178,35.3492156 18.1323728,35.0702499 18.1225932,34.7844332 C18.1191161,34.6754588 18.1232452,34.5679832 18.1275917,34.4607216 C18.4837846,34.0811313 19.0931593,33.309319 19.3226527,32.2703163 C19.6532015,30.774649 19.2496321,29.6748433 19.2455029,29.6641386 C19.1529232,29.6452982 17.8550682,30.4507234 17.5153918,31.9033575 C17.3182796,32.7462493 17.4360688,33.5497476 17.5701573,34.0787762 C17.5553793,34.1879647 17.5423399,34.2973672 17.5351683,34.4091247 C17.345445,34.0892669 17.1531138,33.7709077 16.9581748,33.45576 C16.8214784,32.5137422 16.3414112,30.2925072 14.7308279,28.4320222 C12.6579979,26.0377985 9.53180165,25.7828114 9.39988638,25.7733912 L9.13518655,25.7539086 L9.1682197,26.0133916 C9.18082446,26.1129458 9.502463,28.4801935 11.590723,30.9529901 C13.3193128,32.9988814 15.6168551,33.8135126 16.4389893,34.0515862 C16.6534875,34.4194013 16.8653777,34.7889292 17.0681404,35.1582429 C17.2974165,35.5763703 17.5032217,35.9786547 17.6955529,36.3736599 C17.1615894,36.1659878 16.6271913,36.0822767 16.1106138,36.0015629 C15.707479,35.4596886 14.6182544,33.9421837 12.7705714,33.1196309 C12.0492752,32.7984885 11.2482214,32.6355622 10.3897942,32.6355622 C9.14627005,32.6355622 8.22894823,32.9764014 8.190482,32.9909598 L7.94251607,33.0845193 L8.08464553,33.3054653 C8.12637162,33.3703361 9.13366529,34.9083941 11.3966532,35.9480392 C12.6010592,36.5016887 13.8089423,36.6179422 14.6099961,36.6179422 C15.0620287,36.6179422 15.430609,36.5826166 15.6777057,36.5496459 C15.7828902,36.5684863 15.8880747,36.5871126 15.9930418,36.6048824 C16.5076635,36.6922332 16.9938158,36.7746597 17.4393287,36.9542854 C17.7309766,37.0739644 17.9702496,37.2328229 18.1510626,37.4278634 C18.2751542,37.6595141 18.3464363,37.8277927 18.411416,37.9937163 C18.7061064,38.7406936 18.9553763,39.521926 19.1629201,40.3309908 C18.708497,40.1428013 18.2423384,40.0768601 17.8357264,40.038323 C17.6362236,40.0218377 17.4275932,40.0130598 17.2124431,40.0077074 C16.5950275,39.5930055 14.9568442,38.6471341 12.5082621,38.3726644 C12.1914047,38.3369105 11.8658543,38.3189265 11.5407386,38.3189265 C8.89243639,38.3189265 6.90740501,39.4810339 6.82417017,39.5302757 L6.57642156,39.677573 L6.78918111,39.8709008 C6.87871833,39.9520427 9.01392013,41.8651951 12.0297161,42.1677113 C12.2489954,42.1897631 12.4734904,42.2006819 12.6962468,42.2006819 C14.850573,42.2006819 16.5524321,41.1925088 17.2024462,40.7448363 C17.3978199,40.7542565 17.5823274,40.7681726 17.7585766,40.7867989 C18.2881936,40.8473878 18.6737252,40.949297 18.9729795,41.107299 C19.1437956,41.1972189 19.2794054,41.3081201 19.3767662,41.4380757 C19.5945242,42.343055 19.7155733,43.1878737 19.7909845,44.0566709 C19.8374917,44.5814176 19.8685689,45.1149422 19.8866068,45.6632394 C19.8763926,45.8552825 19.8642225,46.045827 19.8574855,46.239797 C19.84575,46.5727147 19.8392303,46.9107706 19.8368397,47.2404768 L19.8266255,48.2276686 L19.8179326,51.4074066 L19.5538848,64.5654676 C19.562795,64.6690895 19.5808328,64.7140494 19.6234282,64.749161 C19.8064145,64.8375822 20.0280843,64.8574931 20.4407813,64.8574931 C21.1586003,64.8566367 21.2220587,64.7859853 21.2729124,64.728822 L21.3294164,64.5661098 L21.0647166,51.3851407 L21.0558063,48.2265981 C21.0545024,48.0439751 21.0525465,47.8615662 21.0505906,47.6795855 C21.0455921,47.2154277 21.0403764,46.7356409 21.0486347,46.2699844 C21.0592835,45.6097156 21.0903608,44.9592952 21.1405624,44.3371353 C21.2477029,42.9986137 21.4519868,41.7193965 21.7475465,40.5345951 C22.0533205,39.3046196 22.4847073,38.0840644 23.0295369,36.9065422 C23.092126,36.7703778 23.1614522,36.6363544 23.2270838,36.5010464 C23.621091,37.32103 23.9572902,38.1345908 24.2241633,38.9275984 C24.5679688,39.9464763 24.8367978,41.0255148 25.0232612,42.1345266 C25.1975545,43.166036 25.3099107,44.2756901 25.3575045,45.4322309 C25.3703266,45.7424545 25.3772809,46.0597432 25.3809754,46.3798151 C25.375977,46.5367467 25.368588,46.6908951 25.3655455,46.8503958 L25.0525999,64.5825952 C25.0775921,64.7951914 25.2088554,64.857279 25.9397137,64.857279 C26.6581847,64.8564226 26.7216431,64.7857713 26.7724968,64.728822 L26.8290008,64.5658957 L26.8244371,64.3391692 L26.5186631,46.8593878 C26.5143167,44.2228086 26.8033567,41.9266404 27.4020825,39.8394288 C27.7165494,38.7355553 28.1431551,37.6224757 28.6697295,36.5305915 C28.7297108,36.5708413 28.7716542,36.6506988 28.8101204,36.7329112 C29.3208303,37.8173021 29.7333099,38.9280266 30.036476,40.0346834 C30.609123,42.1101197 30.8799079,44.3957973 30.8642606,47.0197449 L30.5539229,64.5093747 C30.5754379,64.688144 30.5778284,64.6943527 30.5810883,64.7001333 C30.6993122,64.7921941 30.7134382,64.7971183 30.7286508,64.8018284 C30.8231865,64.8311594 30.9650986,64.8470024 31.1789448,64.8536393 C31.311512,64.8564226 31.3721452,64.857279 31.4397328,64.857279 C31.5112322,64.857279 31.5673016,64.8564226 31.6205458,64.8553521 C32.1664621,64.8440051 32.2251394,64.7812753 32.2720812,64.7298925 L32.0171609,47.0188885 C32.0132491,46.7369255 32.0041215,46.4609571 31.9939073,46.1862733 C32.0130318,45.087324 32.0860524,44.0299091 32.2129692,43.0437878 C32.3537948,41.9474076 32.5676409,40.8867812 32.8484227,39.8905975 C33.1328989,38.8781425 33.5082163,37.8618338 33.9648127,36.8701461 C34.0230553,36.7434019 34.0836885,36.6153731 34.1456257,36.4864879 C34.7121876,37.6507362 35.1648722,38.8336108 35.4891186,40.0047101 C35.8220579,41.1991458 36.0591577,42.4924933 36.1934635,43.8487847 C36.2554007,44.4769393 36.2975614,45.1363517 36.3182071,45.809038 C36.3392875,46.4401899 36.3345064,47.0525014 36.3260308,47.7862048 L36.0530726,64.5616138 C36.0782822,64.7234696 36.1237027,64.780633 36.2816968,64.8153164 C36.4238263,64.8375822 36.4420814,64.839295 36.4605539,64.8410077 C36.5981196,64.8502138 36.6142015,64.8508561 36.6298488,64.8514984 C36.719386,64.855138 36.8213107,64.857279 36.9417078,64.857279 C37.1653335,64.8570649 37.320285,64.8502138 37.4343798,64.839295 C37.6086731,64.8174573 37.6658291,64.8007579 37.7025568,64.782988 C37.7527585,64.7508738 37.8305602,64.6626667 37.8305602,64.6626667 L37.5558635,47.7877035 C37.5499958,47.1094507 37.5441281,46.4316261 37.5093563,45.7623653 C37.4987075,45.5427039 37.4817563,45.3253975 37.4665436,45.1074489 C37.5078351,44.2765464 37.581073,43.4694085 37.6886481,42.7068023 C37.6988623,42.6331537 37.7116844,42.5607896 37.7225505,42.487355 C37.7951365,42.3019488 37.8846737,42.1336702 37.9911622,41.984446 C38.2089202,41.6746506 38.5286028,41.4151676 38.916525,41.2338291 C39.155798,41.1210011 39.429408,41.0308671 39.7410497,40.9589312 C40.2987014,41.287567 41.8603869,42.0902089 43.8045615,42.0902089 C44.2172585,42.0902089 44.6277823,42.0529564 45.0243974,41.9793077 C47.9623916,41.4355066 49.8987426,39.3808374 49.9795869,39.2937008 L50.1749605,39.0834596 L49.9165631,38.9565013 C49.846585,38.9224602 48.1734126,38.1213169 45.9306357,38.1213169 Z M28.8740135,25.4451837 C29.166748,26.7601548 29.608349,28.0629225 30.1862118,29.3164484 C30.4235289,29.8369132 30.6834476,30.3464591 30.9551018,30.8474413 C30.5878253,31.4749536 30.2033803,32.0945443 29.8252377,32.7000048 L29.6702862,32.9481409 C29.3592965,33.4463398 29.0239666,33.9899268 28.6910272,34.5604898 C28.4093762,34.0781339 28.1240306,33.6103365 27.8449875,33.1620217 L27.5559474,32.6982921 C27.1778048,32.0928316 26.7911866,31.4721703 26.4243448,30.8446581 C26.5745152,30.5676192 26.7209911,30.2882253 26.861382,30.0064764 C27.485752,28.7598015 27.9714696,27.4959991 28.3052783,26.2508229 C28.4574046,25.6881814 28.5828002,25.1026318 28.6873327,24.5018814 C28.7429675,24.8221674 28.805122,25.137101 28.8740135,25.4451837 Z M25.0734629,33.1787211 C25.3705439,32.6822349 25.6721887,32.177185 25.9666618,31.6639994 C26.246357,32.1519218 26.5321372,32.6332072 26.8137882,33.1048583 L27.1071747,33.5974908 C27.4622811,34.1943875 27.825863,34.824683 28.1755363,35.476388 C28.0588336,35.6915534 27.9436523,35.9084316 27.8328173,36.1278789 C27.2595184,37.2570156 26.7898826,38.4122719 26.4376015,39.5604631 C26.2394026,40.2027479 26.0724983,40.8668704 25.9297169,41.5509037 C25.7176093,40.5399474 25.4444339,39.5572517 25.1082346,38.6278655 C24.7444354,37.6194784 24.275017,36.5830448 23.7154094,35.5466111 C24.0968118,34.833675 24.4997293,34.1380805 24.8954751,33.4765272 L25.0734629,33.1787211 Z M31.4610305,41.5780938 C31.3319404,40.956148 31.1822046,40.3515439 31.0074767,39.7644956 C30.6647578,38.6081688 30.2096827,37.4548393 29.6552909,36.3376919 C29.5114228,36.0458805 29.3621217,35.7594215 29.2093434,35.4776726 C29.609001,34.7328363 30.0275657,34.0216129 30.4078816,33.3842522 L30.5474032,33.1506747 C30.8364432,32.666606 31.1304817,32.1737595 31.4173485,31.6736337 C31.7044326,32.1739735 31.9980365,32.6661778 32.2881631,33.1517451 C32.7575815,33.9370454 33.2385181,34.7428987 33.6762073,35.5609555 C33.4999581,35.8874503 33.3384868,36.2015276 33.1878817,36.511537 C32.68869,37.535339 32.2736025,38.586117 31.9539198,39.6345399 C31.7626753,40.2605535 31.6001174,40.9120444 31.4610305,41.5780938 Z M31.4610305,41.5780938" id="Shape" fill="#FFFFFF" sketch:type="MSShapeGroup"></path>
    </g>
</svg>